<?xml version="1.0" encoding="UTF-8" standalone="no"?>
<svg xmlns="http://www.w3.org/2000/svg" version="1.1" width="340" height="110" viewBox="0 0 340 110">
  <!-- SE-v260422-215-Horizontal-ColourBlack-NoBack.svg -->
  <g transform="translate(10,23.0) scale(0.125)">
    <g transform="translate(256,256) scale(8.125) translate(-43,-160)">
      <path d="m 33.530148,163.53827 a 9.3221491,9.3221491 0 0 1 -2.205948,-3.96552 13.983223,13.983223 0 0 1 9.887632,-17.12587 21.524999,21.524999 0 0 1 16.549754,2.27683 1.7803804,1.7803804 0 0 1 -1.816132,3.06279 17.964256,17.964256 0 0 0 -13.812034,-1.90022 10.422479,10.422479 0 0 0 -7.369806,12.76488 5.7614049,5.7614049 0 0 0 1.363351,2.45082 1.7803772,1.7803772 0 1 1 -2.596817,2.43629 z" style="fill:#000000;stroke:none"/>
      <path d="m 46.369631,169.57847 a 9.3221491,9.3221491 0 0 1 -3.965502,2.20595 13.983223,13.983223 0 0 1 -17.125881,-9.88764 21.524999,21.524999 0 0 1 2.276847,-16.54975 1.7803766,1.7803766 0 0 1 3.06277,1.81615 17.964256,17.964256 0 0 0 -1.900202,13.81201 10.422479,10.422479 0 0 0 12.764878,7.36983 5.7614049,5.7614049 0 0 0 2.450814,-1.36336 1.780372,1.780372 0 1 1 2.436276,2.59681 z" style="fill:#ff00aa;stroke:none"/>
      <path d="m 52.409852,156.73899 a 9.3221491,9.3221491 0 0 1 2.205949,3.96551 13.983223,13.983223 0 0 1 -9.887633,17.12588 21.524999,21.524999 0 0 1 -16.549754,-2.27685 1.7803723,1.7803723 0 0 1 1.816133,-3.06277 17.964256,17.964256 0 0 0 13.812033,1.9002 10.422479,10.422479 0 0 0 7.369806,-12.76488 5.7614049,5.7614049 0 0 0 -1.363351,-2.45082 1.780372,1.780372 0 1 1 2.596817,-2.43627 z" style="fill:#000000;stroke:none"/>
      <path d="m 39.570369,150.69876 a 9.3221491,9.3221491 0 0 1 3.965502,-2.20595 13.983223,13.983223 0 0 1 17.125881,9.88764 21.524999,21.524999 0 0 1 -2.276847,16.54976 1.780372,1.780372 0 0 1 -3.06277,-1.81613 17.964256,17.964256 0 0 0 1.900202,-13.81204 10.422479,10.422479 0 0 0 -12.764878,-7.3698 5.7614049,5.7614049 0 0 0 -2.450814,1.36334 1.7803735,1.7803735 0 1 1 -2.436276,-2.59682 z" style="fill:#000000;stroke:none"/>
    </g>
  </g>
  <g transform="translate(88,27.0) scale(0.72)">
    <g style="fill:#000000;stroke:none" transform="translate(0,39.000) scale(0.035014,-0.035014)">
  <path transform="translate(0,0)" d="M496 186Q496 122 464.0 78.5Q432 35 376.0 12.5Q320 -10 249 -10Q206 -10 170.5 -5.5Q135 -1 106.0 6.0Q77 13 54 22V79Q92 64 142.5 53.0Q193 42 252 42Q307 42 348.5 57.5Q390 73 413.5 104.5Q437 136 437 182Q437 225 417.5 252.0Q398 279 357.5 299.5Q317 320 254 341Q209 357 173.5 374.0Q138 391 113.0 414.0Q88 437 75.0 468.5Q62 500 62 543Q62 602 92.0 642.0Q122 682 173.5 703.0Q225 724 290 724Q343 724 389.5 714.5Q436 705 478 686L459 636Q417 654 374.0 663.0Q331 672 288 672Q239 672 201.5 657.5Q164 643 142.5 614.5Q121 586 121 544Q121 499 141.0 471.0Q161 443 199.5 424.0Q238 405 292 386Q356 365 401.5 340.5Q447 316 471.5 279.5Q496 243 496 186Z"/>
  <path transform="translate(626,0)" d="M261 0H51V36L127 47V666L51 678V714H261V678L185 666V47L261 36Z"/>
  <path transform="translate(1017,0)" d="M410 0 154 653H151Q152 635 153.0 612.5Q154 590 154.5 565.5Q155 541 155 515V0H100V714H188L434 89H437L686 714H772V0H714V521Q714 543 714.5 566.0Q715 589 716.5 611.0Q718 633 718 652H715L457 0Z"/>
  <path transform="translate(1969,0)" d="M278 714Q408 714 471.5 664.0Q535 614 535 512Q535 461 518.5 420.0Q502 379 468.5 350.5Q435 322 383.5 307.0Q332 292 263 292H158V0H100V714ZM272 663H158V343H257Q326 343 375.0 358.5Q424 374 449.5 410.5Q475 447 475 509Q475 589 426.0 626.0Q377 663 272 663Z"/>
  <path transform="translate(2638,0)" d="M100 0V714H158V53H493V0Z"/>
  <path transform="translate(3233,0)" d="M492 0H100V714H492V662H158V401H473V349H158V52H492Z"/>
</g>
    <g style="fill:#ff00aa;stroke:none" transform="translate(135.364,39.000) scale(0.035014,-0.035014)">
  <path transform="translate(0,0)" d="M410 0 154 653H151Q152 635 153.0 612.5Q154 590 154.5 565.5Q155 541 155 515V0H100V714H188L434 89H437L686 714H772V0H714V521Q714 543 714.5 566.0Q715 589 716.5 611.0Q718 633 718 652H715L457 0Z"/>
  <path transform="translate(952,0)" d="M705 358Q705 276 685.0 209.0Q665 142 624.5 92.5Q584 43 524.0 16.5Q464 -10 384 -10Q303 -10 242.5 17.0Q182 44 142.0 93.0Q102 142 82.0 209.5Q62 277 62 359Q62 468 98.5 550.5Q135 633 207.5 679.0Q280 725 387 725Q490 725 561.0 680.5Q632 636 668.5 554.0Q705 472 705 358ZM123 359Q123 264 151.0 192.5Q179 121 237.5 81.5Q296 42 384 42Q474 42 531.5 81.0Q589 120 616.5 191.5Q644 263 644 358Q644 507 579.5 590.0Q515 673 387 673Q298 673 239.0 634.0Q180 595 151.5 524.0Q123 453 123 359Z"/>
  <path transform="translate(1800,0)" d="M294 0H236V662H6V714H524V662H294Z"/>
  <path transform="translate(2411,0)" d="M261 0H51V36L127 47V666L51 678V714H261V678L185 666V47L261 36Z"/>
  <path transform="translate(2802,0)" d="M705 358Q705 276 685.0 209.0Q665 142 624.5 92.5Q584 43 524.0 16.5Q464 -10 384 -10Q303 -10 242.5 17.0Q182 44 142.0 93.0Q102 142 82.0 209.5Q62 277 62 359Q62 468 98.5 550.5Q135 633 207.5 679.0Q280 725 387 725Q490 725 561.0 680.5Q632 636 668.5 554.0Q705 472 705 358ZM123 359Q123 264 151.0 192.5Q179 121 237.5 81.5Q296 42 384 42Q474 42 531.5 81.0Q589 120 616.5 191.5Q644 263 644 358Q644 507 579.5 590.0Q515 673 387 673Q298 673 239.0 634.0Q180 595 151.5 524.0Q123 453 123 359Z"/>
  <path transform="translate(3650,0)" d="M629 0H567L153 624H150Q152 598 152.5 570.0Q153 542 154.0 512.5Q155 483 155 451V0H100V714H162L575 92H578Q577 113 576.0 142.0Q575 171 574.5 202.5Q574 234 574 261V714H629Z"/>
</g>
  </g>
  <g transform="translate(108.30454901960783,83.0)">
    <g fill="#000000" transform="scale(0.0196078431372549,-0.0196078431372549)">
      <path transform="translate(0,0)" d="M501 0H90V714H501V590H241V433H483V309H241V125H501Z"/>
      <path transform="translate(560,0)" d="M723 0H531L220 540H216Q218 506 219.5 472.0Q221 438 222.5 404.0Q224 370 225 336V0H90V714H281L591 179H594Q593 212 592.0 245.0Q591 278 589.5 310.5Q588 343 587 376V714H723Z"/>
      <path transform="translate(1373,0)" d="M365.0889892578125 0H212.260498046875V586.8111572265625H19.1497802734375V714H557.8096923828125V586.8111572265625H365.0889892578125Z"/>
      <path transform="translate(1950,0)" d="M501 0H90V714H501V590H241V433H483V309H241V125H501Z"/>
      <path transform="translate(2510,0)" d="M304.3697509765625 714Q398.2496337890625 714 460.01953125 690.5850219726562Q521.7894287109375 667.1700439453125 552.5343627929688 621.2550659179688Q583.279296875 575.340087890625 583.279296875 506.1201171875Q583.279296875 457.659912109375 566.2442016601562 420.8798828125Q549.2091064453125 384.099853515625 520.0640258789062 358.24493408203125Q490.9189453125 332.3900146484375 453.698974609375 314.5101318359375L657.018798828125 0H482.48046875L322.900146484375 273.6505126953125H237.6287841796875V0H84.80029296875V714ZM300.5897216796875 594.52099609375H237.6287841796875V391.739501953125H301.31982421875Q362.0904541015625 391.739501953125 395.07562255859375 417.0897216796875Q428.060791015625 442.43994140625 428.060791015625 499.0701904296875Q428.060791015625 531.4305419921875 414.74566650390625 552.4157104492188Q401.4305419921875 573.40087890625 373.1903076171875 583.9609375Q344.9500732421875 594.52099609375 300.5897216796875 594.52099609375Z"/>
      <path transform="translate(3166,0)" d="M365.0889892578125 0H212.260498046875V586.8111572265625H19.1497802734375V714H557.8096923828125V586.8111572265625H365.0889892578125Z"/>
      <path transform="translate(3743,0)" d="M526.700439453125 0 471.8096923828125 167.9312744140625H219.9189453125L164.8082275390625 0H0L250.940673828125 717H439.298095703125L691.6787109375 0ZM386.7691650390625 451.12158203125Q382.5491943359375 465.8314208984375 374.3292236328125 495.67620849609375Q366.1092529296875 525.52099609375 358.08428955078125 557.4757690429688Q350.059326171875 589.4305419921875 345.4493408203125 608.7503662109375Q341.059326171875 586.3104248046875 333.7293701171875 556.3556518554688Q326.3994140625 526.40087890625 319.0694580078125 498.421142578125Q311.739501953125 470.44140625 306.51953125 451.12158203125L256.018798828125 295.5101318359375H436.8798828125Z"/>
      <path transform="translate(4435,0)" d="M357 0H32V86L119 126V588L32 628V714H357V628L270 588V126L357 86Z"/>
      <path transform="translate(4824,0)" d="M723 0H531L220 540H216Q218 506 219.5 472.0Q221 438 222.5 404.0Q224 370 225 336V0H90V714H281L591 179H594Q593 212 592.0 245.0Q591 278 589.5 310.5Q588 343 587 376V714H723Z"/>
      <path transform="translate(5637,0)" d="M392 0 220 560H216Q217 540 219.0 500.0Q221 460 223.0 414.5Q225 369 225 332V0H90V714H296L465 168H468L647 714H853V0H712V338Q712 372 713.5 416.0Q715 460 716.5 499.5Q718 539 719 559H715L531 0Z"/>
      <path transform="translate(6580,0)" d="M501 0H90V714H501V590H241V433H483V309H241V125H501Z"/>
      <path transform="translate(7140,0)" d="M723 0H531L220 540H216Q218 506 219.5 472.0Q221 438 222.5 404.0Q224 370 225 336V0H90V714H281L591 179H594Q593 212 592.0 245.0Q591 278 589.5 310.5Q588 343 587 376V714H723Z"/>
      <path transform="translate(7953,0)" d="M365.0889892578125 0H212.260498046875V586.8111572265625H19.1497802734375V714H557.8096923828125V586.8111572265625H365.0889892578125Z"/>
    </g>
  </g>
</svg>
