<?xml version="1.0" encoding="UTF-8" standalone="no"?>
<svg xmlns="http://www.w3.org/2000/svg" version="1.1" width="340" height="110" viewBox="0 0 340 110">
  <!-- SP-v260422-215-Horizontal-ColourBlack-NoBack.svg -->
  <g transform="translate(10,23.0) scale(0.125)">
    <g transform="translate(256,256) scale(8.125) translate(-43,-160)">
      <path d="m 33.530148,163.53827 a 9.3221491,9.3221491 0 0 1 -2.205948,-3.96552 13.983223,13.983223 0 0 1 9.887632,-17.12587 21.524999,21.524999 0 0 1 16.549754,2.27683 1.7803804,1.7803804 0 0 1 -1.816132,3.06279 17.964256,17.964256 0 0 0 -13.812034,-1.90022 10.422479,10.422479 0 0 0 -7.369806,12.76488 5.7614049,5.7614049 0 0 0 1.363351,2.45082 1.7803772,1.7803772 0 1 1 -2.596817,2.43629 z" style="fill:#000000;stroke:none"/>
      <path d="m 46.369631,169.57847 a 9.3221491,9.3221491 0 0 1 -3.965502,2.20595 13.983223,13.983223 0 0 1 -17.125881,-9.88764 21.524999,21.524999 0 0 1 2.276847,-16.54975 1.7803766,1.7803766 0 0 1 3.06277,1.81615 17.964256,17.964256 0 0 0 -1.900202,13.81201 10.422479,10.422479 0 0 0 12.764878,7.36983 5.7614049,5.7614049 0 0 0 2.450814,-1.36336 1.780372,1.780372 0 1 1 2.436276,2.59681 z" style="fill:#00d528;stroke:none"/>
      <path d="m 52.409852,156.73899 a 9.3221491,9.3221491 0 0 1 2.205949,3.96551 13.983223,13.983223 0 0 1 -9.887633,17.12588 21.524999,21.524999 0 0 1 -16.549754,-2.27685 1.7803723,1.7803723 0 0 1 1.816133,-3.06277 17.964256,17.964256 0 0 0 13.812033,1.9002 10.422479,10.422479 0 0 0 7.369806,-12.76488 5.7614049,5.7614049 0 0 0 -1.363351,-2.45082 1.780372,1.780372 0 1 1 2.596817,-2.43627 z" style="fill:#000000;stroke:none"/>
      <path d="m 39.570369,150.69876 a 9.3221491,9.3221491 0 0 1 3.965502,-2.20595 13.983223,13.983223 0 0 1 17.125881,9.88764 21.524999,21.524999 0 0 1 -2.276847,16.54976 1.780372,1.780372 0 0 1 -3.06277,-1.81613 17.964256,17.964256 0 0 0 1.900202,-13.81204 10.422479,10.422479 0 0 0 -12.764878,-7.3698 5.7614049,5.7614049 0 0 0 -2.450814,1.36334 1.7803735,1.7803735 0 1 1 -2.436276,-2.59682 z" style="fill:#000000;stroke:none"/>
    </g>
  </g>
  <g transform="translate(88,27.0) scale(0.72)">
    <g style="fill:#000000;stroke:none" transform="translate(0,39.000) scale(0.035014,-0.035014)">
  <path transform="translate(0,0)" d="M496 186Q496 122 464.0 78.5Q432 35 376.0 12.5Q320 -10 249 -10Q206 -10 170.5 -5.5Q135 -1 106.0 6.0Q77 13 54 22V79Q92 64 142.5 53.0Q193 42 252 42Q307 42 348.5 57.5Q390 73 413.5 104.5Q437 136 437 182Q437 225 417.5 252.0Q398 279 357.5 299.5Q317 320 254 341Q209 357 173.5 374.0Q138 391 113.0 414.0Q88 437 75.0 468.5Q62 500 62 543Q62 602 92.0 642.0Q122 682 173.5 703.0Q225 724 290 724Q343 724 389.5 714.5Q436 705 478 686L459 636Q417 654 374.0 663.0Q331 672 288 672Q239 672 201.5 657.5Q164 643 142.5 614.5Q121 586 121 544Q121 499 141.0 471.0Q161 443 199.5 424.0Q238 405 292 386Q356 365 401.5 340.5Q447 316 471.5 279.5Q496 243 496 186Z"/>
  <path transform="translate(626,0)" d="M261 0H51V36L127 47V666L51 678V714H261V678L185 666V47L261 36Z"/>
  <path transform="translate(1017,0)" d="M410 0 154 653H151Q152 635 153.0 612.5Q154 590 154.5 565.5Q155 541 155 515V0H100V714H188L434 89H437L686 714H772V0H714V521Q714 543 714.5 566.0Q715 589 716.5 611.0Q718 633 718 652H715L457 0Z"/>
  <path transform="translate(1969,0)" d="M278 714Q408 714 471.5 664.0Q535 614 535 512Q535 461 518.5 420.0Q502 379 468.5 350.5Q435 322 383.5 307.0Q332 292 263 292H158V0H100V714ZM272 663H158V343H257Q326 343 375.0 358.5Q424 374 449.5 410.5Q475 447 475 509Q475 589 426.0 626.0Q377 663 272 663Z"/>
  <path transform="translate(2638,0)" d="M100 0V714H158V53H493V0Z"/>
  <path transform="translate(3233,0)" d="M492 0H100V714H492V662H158V401H473V349H158V52H492Z"/>
</g>
    <g style="fill:#00d528;stroke:none" transform="translate(135.364,39.000) scale(0.035014,-0.035014)">
  <path transform="translate(0,0)" d="M410 0 154 653H151Q152 635 153.0 612.5Q154 590 154.5 565.5Q155 541 155 515V0H100V714H188L434 89H437L686 714H772V0H714V521Q714 543 714.5 566.0Q715 589 716.5 611.0Q718 633 718 652H715L457 0Z"/>
  <path transform="translate(952,0)" d="M705 358Q705 276 685.0 209.0Q665 142 624.5 92.5Q584 43 524.0 16.5Q464 -10 384 -10Q303 -10 242.5 17.0Q182 44 142.0 93.0Q102 142 82.0 209.5Q62 277 62 359Q62 468 98.5 550.5Q135 633 207.5 679.0Q280 725 387 725Q490 725 561.0 680.5Q632 636 668.5 554.0Q705 472 705 358ZM123 359Q123 264 151.0 192.5Q179 121 237.5 81.5Q296 42 384 42Q474 42 531.5 81.0Q589 120 616.5 191.5Q644 263 644 358Q644 507 579.5 590.0Q515 673 387 673Q298 673 239.0 634.0Q180 595 151.5 524.0Q123 453 123 359Z"/>
  <path transform="translate(1800,0)" d="M294 0H236V662H6V714H524V662H294Z"/>
  <path transform="translate(2411,0)" d="M261 0H51V36L127 47V666L51 678V714H261V678L185 666V47L261 36Z"/>
  <path transform="translate(2802,0)" d="M705 358Q705 276 685.0 209.0Q665 142 624.5 92.5Q584 43 524.0 16.5Q464 -10 384 -10Q303 -10 242.5 17.0Q182 44 142.0 93.0Q102 142 82.0 209.5Q62 277 62 359Q62 468 98.5 550.5Q135 633 207.5 679.0Q280 725 387 725Q490 725 561.0 680.5Q632 636 668.5 554.0Q705 472 705 358ZM123 359Q123 264 151.0 192.5Q179 121 237.5 81.5Q296 42 384 42Q474 42 531.5 81.0Q589 120 616.5 191.5Q644 263 644 358Q644 507 579.5 590.0Q515 673 387 673Q298 673 239.0 634.0Q180 595 151.5 524.0Q123 453 123 359Z"/>
  <path transform="translate(3650,0)" d="M629 0H567L153 624H150Q152 598 152.5 570.0Q153 542 154.0 512.5Q155 483 155 451V0H100V714H162L575 92H578Q577 113 576.0 142.0Q575 171 574.5 202.5Q574 234 574 261V714H629Z"/>
</g>
  </g>
  <g transform="translate(145.5692549019608,83.0)">
    <g fill="#000000" transform="scale(0.0196078431372549,-0.0196078431372549)">
      <path transform="translate(0,0)" d="M309.179443359375 714Q446.739501953125 714 512.8744506835938 656.56005859375Q579.0093994140625 599.1201171875 579.0093994140625 493.6302490234375Q579.0093994140625 446.580322265625 564.8143920898438 403.640380859375Q550.619384765625 360.700439453125 518.5343627929688 326.56549072265625Q486.4493408203125 292.4305419921875 433.279296875 272.7105712890625Q380.1092529296875 252.9906005859375 302.5491943359375 252.9906005859375H237.6287841796875V0H84.80029296875V714ZM303.619384765625 588.8111572265625H237.6287841796875V378.7894287109375H288.8892822265625Q330.659912109375 378.7894287109375 361.32525634765625 389.6295166015625Q391.9906005859375 400.4696044921875 408.500732421875 424.84478759765625Q425.0108642578125 449.219970703125 425.0108642578125 489.020263671875Q425.0108642578125 536.6707763671875 395.6505126953125 562.740966796875Q366.2901611328125 588.8111572265625 303.619384765625 588.8111572265625Z"/>
      <path transform="translate(621,0)" d="M304.3697509765625 714Q398.2496337890625 714 460.01953125 690.5850219726562Q521.7894287109375 667.1700439453125 552.5343627929688 621.2550659179688Q583.279296875 575.340087890625 583.279296875 506.1201171875Q583.279296875 457.659912109375 566.2442016601562 420.8798828125Q549.2091064453125 384.099853515625 520.0640258789062 358.24493408203125Q490.9189453125 332.3900146484375 453.698974609375 314.5101318359375L657.018798828125 0H482.48046875L322.900146484375 273.6505126953125H237.6287841796875V0H84.80029296875V714ZM300.5897216796875 594.52099609375H237.6287841796875V391.739501953125H301.31982421875Q362.0904541015625 391.739501953125 395.07562255859375 417.0897216796875Q428.060791015625 442.43994140625 428.060791015625 499.0701904296875Q428.060791015625 531.4305419921875 414.74566650390625 552.4157104492188Q401.4305419921875 573.40087890625 373.1903076171875 583.9609375Q344.9500732421875 594.52099609375 300.5897216796875 594.52099609375Z"/>
      <path transform="translate(1277,0)" d="M735.2496337890625 358Q735.2496337890625 275 714.859619140625 207.5Q694.4696044921875 140 652.6646118164062 91.0Q610.859619140625 42 546.919677734375 16.0Q482.979736328125 -10 395.2698974609375 -10Q307.6099853515625 -10 243.47503662109375 16.19500732421875Q179.340087890625 42.3900146484375 137.42510986328125 91.19500732421875Q95.5101318359375 140 75.20513916015625 207.69500732421875Q54.900146484375 275.3900146484375 54.900146484375 359Q54.900146484375 469.6099853515625 91.5101318359375 551.9149780273438Q128.1201171875 634.219970703125 203.75506591796875 679.6099853515625Q279.3900146484375 725 396.2698974609375 725Q512.419677734375 725 587.5546264648438 679.5Q662.6895751953125 634 698.9696044921875 551.5Q735.2496337890625 469 735.2496337890625 358ZM215.778564453125 358Q215.778564453125 283.859619140625 234.37371826171875 230.14434814453125Q252.9688720703125 176.4290771484375 292.96417236328125 147.5289306640625Q332.95947265625 118.6287841796875 395.2698974609375 118.6287841796875Q459.1903076171875 118.6287841796875 498.4906005859375 147.5289306640625Q537.7908935546875 176.4290771484375 556.0810546875 230.14434814453125Q574.3712158203125 283.859619140625 574.3712158203125 358Q574.3712158203125 469.820556640625 533.0108642578125 533.8158569335938Q491.6505126953125 597.8111572265625 396.2698974609375 597.8111572265625Q332.95947265625 597.8111572265625 292.96417236328125 568.801025390625Q252.9688720703125 539.7908935546875 234.37371826171875 486.2706298828125Q215.778564453125 432.7503662109375 215.778564453125 358Z"/>
      <path transform="translate(2068,0)" d="M14.600000000000001 -210Q-14.440000000000001 -210 -36.22 -206.5Q-58 -203 -74 -199V-73Q-58.22222222222222 -77 -40.47222222222222 -80.0Q-22.72222222222222 -83 -3 -83Q23 -83 44.5 -73.0Q66 -63 78.0 -35.0Q90 -7 90 45V714H241V46Q241 -46 212.5 -102.5Q184 -159 133.18 -184.5Q82.36 -210 14.600000000000001 -210Z"/>
      <path transform="translate(2399,0)" d="M501 0H90V714H501V590H241V433H483V309H241V125H501Z"/>
      <path transform="translate(2959,0)" d="M398.1201171875 596.8111572265625Q355.1497802734375 596.8111572265625 320.739501953125 580.361083984375Q286.3292236328125 563.9110107421875 262.259033203125 532.5108642578125Q238.1888427734375 501.1107177734375 225.458740234375 456.45550537109375Q212.7286376953125 411.80029296875 212.7286376953125 355.1700439453125Q212.7286376953125 279.979736328125 233.82379150390625 226.5694580078125Q254.9189453125 173.1591796875 297.52423095703125 145.17401123046875Q340.1295166015625 117.1888427734375 404.43994140625 117.1888427734375Q451.43994140625 117.1888427734375 494.96490478515625 128.23876953125Q538.4898681640625 139.2886962890625 581.539794921875 155.55859375V25.7098388671875Q537.2698974609375 7.0499267578125 490.5 -1.47503662109375Q443.7301025390625 -10 386.56005859375 -10Q273.2901611328125 -10 199.68017578125 35.6099853515625Q126.0701904296875 81.219970703125 90.48516845703125 163.91497802734375Q54.900146484375 246.6099853515625 54.900146484375 356.1700439453125Q54.900146484375 437.1700439453125 77.400146484375 504.47503662109375Q99.900146484375 571.780029296875 143.70513916015625 621.0850219726562Q187.5101318359375 670.3900146484375 251.81512451171875 697.1950073242188Q316.1201171875 724 399.7301025390625 724Q452.900146484375 724 507.56005859375 712.3900146484375Q562.219970703125 700.780029296875 611.3697509765625 677.1201171875L561.340087890625 554.76123046875Q524.68017578125 572.201171875 484.48516845703125 584.5061645507812Q444.2901611328125 596.8111572265625 398.1201171875 596.8111572265625Z"/>
      <path transform="translate(3601,0)" d="M365.0889892578125 0H212.260498046875V586.8111572265625H19.1497802734375V714H557.8096923828125V586.8111572265625H365.0889892578125Z"/>
      <path transform="translate(4178,0)" d="M511 198Q511 135 480.0 88.0Q449 41 390.5 15.5Q332 -10 248 -10Q211 -10 175.5 -5.0Q140 0 107.5 9.5Q75 19 46 33V174Q97 152 151.5 133.5Q206 115 260 115Q297 115 319.5 125.0Q342 135 352.5 152.0Q363 169 363 191Q363 218 344.5 237.0Q326 256 295.0 272.5Q264 289 224 308Q199 320 170.0 336.5Q141 353 114.5 377.5Q88 402 71.0 437.0Q54 472 54 521Q54 585 83.5 630.5Q113 676 167.5 700.0Q222 724 296 724Q352 724 402.5 711.0Q453 698 508 674L459 556Q410 576 371.0 587.0Q332 598 291 598Q263 598 243.0 589.0Q223 580 212.5 564.0Q202 548 202 526Q202 501 217.0 483.5Q232 466 262.0 450.0Q292 434 337 412Q392 386 430.5 358.0Q469 330 490.0 292.0Q511 254 511 198Z"/>
    </g>
  </g>
</svg>
